<?xml version="1.0" encoding="UTF-8"?>
<!DOCTYPE svg PUBLIC "-//W3C//DTD SVG 1.1//EN" "http://www.w3.org/Graphics/SVG/1.1/DTD/svg11.dtd">
<svg xmlns="http://www.w3.org/2000/svg" version="1.1" width="512px" height="512px" style="shape-rendering:geometricPrecision; text-rendering:geometricPrecision; image-rendering:optimizeQuality; fill-rule:evenodd; clip-rule:evenodd" xmlns:xlink="http://www.w3.org/1999/xlink">
<g><path style="opacity:0.983" fill="#020202" d="M 167.5,-0.5 C 183.5,-0.5 199.5,-0.5 215.5,-0.5C 276.712,10.5433 313.878,46.5433 327,107.5C 328.416,134.472 328.916,161.472 328.5,188.5C 332.607,188.925 336.274,190.425 339.5,193C 343.34,195.674 346.673,198.841 349.5,202.5C 367.919,191.327 384.419,193.66 399,209.5C 400.247,212.329 401.747,214.995 403.5,217.5C 419.133,209.604 433.633,211.27 447,222.5C 450.692,226.547 453.359,231.214 455,236.5C 456.15,264.953 456.65,293.453 456.5,322C 456.626,352.522 456.126,383.022 455,413.5C 453.887,423.287 451.22,432.62 447,441.5C 442.21,450.25 437.043,458.75 431.5,467C 442.396,480.278 442.062,493.278 430.5,506C 427.233,508.13 423.9,509.963 420.5,511.5C 370.167,511.5 319.833,511.5 269.5,511.5C 253.496,504.485 247.996,492.485 253,475.5C 255.635,470.052 259.135,465.386 263.5,461.5C 259.668,448.333 252.668,437.166 242.5,428C 237.546,424.715 232.88,421.048 228.5,417C 227.271,416.219 225.938,415.719 224.5,415.5C 195.023,420.782 166.023,418.948 137.5,410C 94.6578,392.156 67.8245,360.656 57,315.5C 56.1696,310.857 55.5029,306.19 55,301.5C 54.3333,239.5 54.3333,177.5 55,115.5C 61.1736,66.6234 86.3403,31.4567 130.5,10C 142.517,4.93281 154.851,1.43281 167.5,-0.5 Z"/></g>
<g><path style="opacity:0.923" fill="#000000" d="M 315.5,-0.5 C 318.167,-0.5 320.833,-0.5 323.5,-0.5C 325.475,0.646381 326.975,2.31305 328,4.5C 328.667,15.1667 328.667,25.8333 328,36.5C 325.598,42.092 321.431,43.9253 315.5,42C 313.274,40.7727 311.774,38.9393 311,36.5C 310.333,25.8333 310.333,15.1667 311,4.5C 312.025,2.31305 313.525,0.646381 315.5,-0.5 Z"/></g>
<g><path style="opacity:0.91" fill="#000000" d="M 362.5,14.5 C 371.741,16.6484 374.241,21.9818 370,30.5C 363.833,36.6667 357.667,42.8333 351.5,49C 340.244,53.4166 335.41,49.5833 337,37.5C 344.167,30.3333 351.333,23.1667 358.5,16C 360.058,15.79 361.391,15.29 362.5,14.5 Z"/></g>
<g><path style="opacity:1" fill="#01a6f0" d="M 230.5,21.5 C 257.957,36.7957 276.957,59.2957 287.5,89C 287.43,89.7648 287.097,90.2648 286.5,90.5C 272.035,81.7393 258.369,82.7393 245.5,93.5C 233.934,92.9476 225.267,97.6142 219.5,107.5C 214.289,101.306 207.789,96.9726 200,94.5C 199.5,68.5021 199.333,42.5021 199.5,16.5C 210.241,16.5014 220.574,18.1681 230.5,21.5 Z"/></g>
<g><path style="opacity:1" fill="#02a8f3" d="M 163.5,18.5 C 165.492,46.1467 166.158,74.1467 165.5,102.5C 153.294,102.858 145.127,108.858 141,120.5C 140.5,134.163 140.333,147.829 140.5,161.5C 117.833,161.5 95.1667,161.5 72.5,161.5C 72.3334,144.497 72.5001,127.497 73,110.5C 83.565,60.4358 113.732,29.7691 163.5,18.5 Z"/></g>
<g><path style="opacity:1" fill="#0275b9" d="M 230.5,21.5 C 272.609,34.4471 298.776,62.4471 309,105.5C 310.372,124.135 310.872,142.802 310.5,161.5C 307.833,161.5 305.167,161.5 302.5,161.5C 302.667,145.497 302.5,129.497 302,113.5C 299.795,103.735 294.629,96.0679 286.5,90.5C 287.097,90.2648 287.43,89.7648 287.5,89C 276.957,59.2957 257.957,36.7957 230.5,21.5 Z"/></g>
<g><path style="opacity:0.923" fill="#000000" d="M 342.5,58.5 C 352.839,58.3335 363.172,58.5002 373.5,59C 379.089,61.4507 380.922,65.6174 379,71.5C 378.167,73.6667 376.667,75.1667 374.5,76C 363.5,76.6667 352.5,76.6667 341.5,76C 337.916,74.3362 336.249,71.5029 336.5,67.5C 336.284,62.9108 338.284,59.9108 342.5,58.5 Z"/></g>
<g><path style="opacity:1" fill="#0273b5" d="M 245.5,93.5 C 240.609,98.2422 237.109,103.909 235,110.5C 234.5,127.497 234.333,144.497 234.5,161.5C 231.5,161.5 228.5,161.5 225.5,161.5C 225.667,148.163 225.5,134.829 225,121.5C 223.997,116.496 222.164,111.83 219.5,107.5C 225.267,97.6142 233.934,92.9476 245.5,93.5 Z"/></g>
<g><path style="opacity:1" fill="#0377bc" d="M 140.5,161.5 C 140.333,147.829 140.5,134.163 141,120.5C 145.127,108.858 153.294,102.858 165.5,102.5C 166.158,74.1467 165.492,46.1467 163.5,18.5C 169.584,16.8228 175.918,16.1561 182.5,16.5C 182.667,42.5021 182.5,68.5021 182,94.5C 170.884,98.225 163.218,105.558 159,116.5C 157.584,131.45 157.084,146.45 157.5,161.5C 151.833,161.5 146.167,161.5 140.5,161.5 Z"/></g>
<g><path style="opacity:1" fill="#dcc29a" d="M 285.5,255.5 C 277.053,254.865 271.553,250.532 269,242.5C 268.667,199.833 268.333,157.167 268,114.5C 266.828,110.142 264.661,106.475 261.5,103.5C 272.674,100.338 280.507,104.338 285,115.5C 285.5,162.165 285.667,208.832 285.5,255.5 Z"/></g>
<g><path style="opacity:1" fill="#fedfb1" d="M 261.5,103.5 C 264.661,106.475 266.828,110.142 268,114.5C 268.333,157.167 268.667,199.833 269,242.5C 271.553,250.532 277.053,254.865 285.5,255.5C 286.5,262.652 290.5,265.152 297.5,263C 298.931,262.535 300.097,261.701 301,260.5C 302.284,245.901 302.95,231.235 303,216.5C 308.964,203.866 318.131,201.032 330.5,208C 332.956,210.408 334.789,213.241 336,216.5C 336.333,233.167 336.667,249.833 337,266.5C 340.003,272.753 344.503,274.087 350.5,270.5C 351.584,269.335 352.417,268.002 353,266.5C 353.05,251.765 353.716,237.099 355,222.5C 361.035,212.893 369.202,210.393 379.5,215C 382.762,217.592 385.262,220.759 387,224.5C 387.333,241.167 387.667,257.833 388,274.5C 390.354,280.095 394.521,281.928 400.5,280C 401.667,278.833 402.833,277.667 404,276.5C 404.333,265.5 404.667,254.5 405,243.5C 406.438,237.581 409.938,233.581 415.5,231.5C 418.027,233.51 419.861,236.177 421,239.5C 421.667,295.5 421.667,351.5 421,407.5C 418.957,426.469 412.124,443.469 400.5,458.5C 360.839,459.5 321.172,459.833 281.5,459.5C 274.201,434.7 259.534,415.534 237.5,402C 221.677,386.852 207.344,370.519 194.5,353C 179.331,339.923 161.665,332.59 141.5,331C 130.001,322.671 128.668,313.004 137.5,302C 142.743,298.397 148.577,296.897 155,297.5C 175.932,297.88 195.432,303.38 213.5,314C 218.334,317.252 223.334,320.252 228.5,323C 240.112,325.28 247.612,320.78 251,309.5C 251.333,244.167 251.667,178.833 252,113.5C 254.016,108.986 257.183,105.653 261.5,103.5 Z"/></g>
<g><path style="opacity:1" fill="#cdd6da" d="M 185.5,194.5 C 188.564,191.176 190.397,187.176 191,182.5C 191.667,162.167 191.667,141.833 191,121.5C 190.275,119.051 189.275,116.717 188,114.5C 187.184,113.177 186.017,112.511 184.5,112.5C 195.27,108.459 203.103,111.792 208,122.5C 208.667,142.833 208.667,163.167 208,183.5C 203.716,193.933 196.216,197.6 185.5,194.5 Z"/></g>
<g><path style="opacity:1" fill="#f3f3f3" d="M 184.5,112.5 C 186.017,112.511 187.184,113.177 188,114.5C 189.275,116.717 190.275,119.051 191,121.5C 191.667,141.833 191.667,162.167 191,182.5C 190.397,187.176 188.564,191.176 185.5,194.5C 180.178,192.676 176.678,189.009 175,183.5C 174.333,163.167 174.333,142.833 175,122.5C 176.612,117.548 179.779,114.215 184.5,112.5 Z"/></g>
<g><path style="opacity:1" fill="#02a8f3" d="M 168.5,204.5 C 185.544,215.878 201.877,214.878 217.5,201.5C 218.159,233.184 217.493,264.518 215.5,295.5C 190.49,282.596 164.157,278.429 136.5,283C 132.806,285.178 129.139,287.345 125.5,289.5C 109.204,290.133 99.871,298.466 97.5,314.5C 99.0553,332.051 108.722,341.051 126.5,341.5C 134.174,347.24 142.84,350.24 152.5,350.5C 162.589,358.311 171.089,367.644 178,378.5C 184.672,386.004 191.505,393.338 198.5,400.5C 154.215,404.265 118.715,388.599 92,353.5C 80.0108,336.033 73.5108,316.699 72.5,295.5C 72.5,256.833 72.5,218.167 72.5,179.5C 95.1667,179.5 117.833,179.5 140.5,179.5C 142.91,195.576 152.243,203.909 168.5,204.5 Z"/></g>
<g><path style="opacity:1" fill="#0270ad" d="M 168.5,204.5 C 152.243,203.909 142.91,195.576 140.5,179.5C 117.833,179.5 95.1667,179.5 72.5,179.5C 72.5,218.167 72.5,256.833 72.5,295.5C 71.5015,256.67 71.1681,217.67 71.5,178.5C 100.167,178.5 128.833,178.5 157.5,178.5C 157.892,188.61 161.559,197.277 168.5,204.5 Z"/></g>
<g><path style="opacity:1" fill="#0276bb" d="M 225.5,179.5 C 228.167,179.5 230.833,179.5 233.5,179.5C 233.832,221.67 233.499,263.67 232.5,305.5C 226.811,302.131 221.144,298.798 215.5,295.5C 217.493,264.518 218.159,233.184 217.5,201.5C 222.338,194.987 225.005,187.654 225.5,179.5 Z"/></g>
<g><path style="opacity:1" fill="#0274b7" d="M 302.5,178.5 C 305.167,178.5 307.833,178.5 310.5,178.5C 312.016,185.15 309.683,189.484 303.5,191.5C 302.508,187.217 302.174,182.884 302.5,178.5 Z"/></g>
<g><path style="opacity:1" fill="#ddc39b" d="M 281.5,459.5 C 321.172,459.833 360.839,459.5 400.5,458.5C 412.124,443.469 418.957,426.469 421,407.5C 421.667,351.5 421.667,295.5 421,239.5C 419.861,236.177 418.027,233.51 415.5,231.5C 425.319,228.28 432.819,231.28 438,240.5C 438.667,296.5 438.667,352.5 438,408.5C 436.335,420.162 432.668,431.162 427,441.5C 422.969,447.366 419.136,453.366 415.5,459.5C 370.669,460.831 326.002,460.831 281.5,459.5 Z"/></g>
<g><path style="opacity:1" fill="#024a75" d="M 225.5,179.5 C 228.287,178.523 231.287,178.19 234.5,178.5C 234.833,221.172 234.5,263.839 233.5,306.5C 232.893,306.376 232.56,306.043 232.5,305.5C 233.499,263.67 233.832,221.67 233.5,179.5C 230.833,179.5 228.167,179.5 225.5,179.5 Z"/></g>
<g><path style="opacity:1" fill="#0276bb" d="M 125.5,289.5 C 110.528,307.153 110.861,324.486 126.5,341.5C 108.722,341.051 99.0553,332.051 97.5,314.5C 99.871,298.466 109.204,290.133 125.5,289.5 Z"/></g>
<g><path style="opacity:1" fill="#0275b8" d="M 152.5,350.5 C 165.153,352.493 175.82,358.159 184.5,367.5C 192.749,378.753 201.749,389.42 211.5,399.5C 207.217,400.492 202.884,400.826 198.5,400.5C 191.505,393.338 184.672,386.004 178,378.5C 171.089,367.644 162.589,358.311 152.5,350.5 Z"/></g>
<g><path style="opacity:1" fill="#00bad2" d="M 402.5,477.5 C 405.105,483.139 405.105,488.806 402.5,494.5C 359.499,494.667 316.499,494.5 273.5,494C 268.391,490.634 267.224,486.134 270,480.5C 270.903,479.299 272.069,478.465 273.5,478C 316.499,477.5 359.499,477.333 402.5,477.5 Z"/></g>
<g><path style="opacity:1" fill="#00818d" d="M 402.5,477.5 C 407.179,477.334 411.845,477.501 416.5,478C 421.224,480.435 422.724,484.269 421,489.5C 420.535,490.931 419.701,492.097 418.5,493C 413.264,494.339 407.93,494.839 402.5,494.5C 405.105,488.806 405.105,483.139 402.5,477.5 Z"/></g>
</svg>
