<?xml version="1.0" encoding="UTF-8"?>
<!DOCTYPE svg PUBLIC "-//W3C//DTD SVG 1.1//EN" "http://www.w3.org/Graphics/SVG/1.1/DTD/svg11.dtd">
<svg xmlns="http://www.w3.org/2000/svg" version="1.1" width="512px" height="512px" style="shape-rendering:geometricPrecision; text-rendering:geometricPrecision; image-rendering:optimizeQuality; fill-rule:evenodd; clip-rule:evenodd" xmlns:xlink="http://www.w3.org/1999/xlink">
<g><path style="opacity:0.929" fill="#000000" d="M 209.5,-0.5 C 218.5,-0.5 227.5,-0.5 236.5,-0.5C 287.707,7.86313 321.207,36.8631 337,86.5C 347.028,130.231 336.862,168.397 306.5,201C 299.029,205.067 294.029,203.067 291.5,195C 292.68,189.801 295.514,185.634 300,182.5C 321.98,154.901 328.647,123.901 320,89.5C 308.252,52.7526 283.752,29.2526 246.5,19C 193.239,10.2133 154.406,29.7133 130,77.5C 114.434,119.116 121.767,156.116 152,188.5C 155.764,194.538 154.597,199.372 148.5,203C 145.743,203.584 143.077,203.25 140.5,202C 108.035,167.976 97.8683,128.142 110,82.5C 126.695,34.9627 159.862,7.29601 209.5,-0.5 Z"/></g>
<g><path style="opacity:0.928" fill="#000000" d="M 209.5,33.5 C 249.56,30.1096 279.393,45.7762 299,80.5C 313.812,116.803 307.978,149.303 281.5,178C 273.872,181.019 269.205,178.519 267.5,170.5C 268.054,168.39 268.888,166.39 270,164.5C 289.846,143.269 294.846,118.936 285,91.5C 270.066,60.9441 245.566,47.4441 211.5,51C 176.986,59.517 158.319,81.517 155.5,117C 156.28,136.362 163.447,152.862 177,166.5C 179.099,171.929 177.599,176.096 172.5,179C 169.743,179.584 167.077,179.25 164.5,178C 141.472,154.058 133.972,125.892 142,93.5C 153.388,60.9431 175.888,40.9431 209.5,33.5 Z"/></g>
<g><path style="opacity:0.962" fill="#030202" d="M 355.5,511.5 C 353.833,511.5 352.167,511.5 350.5,511.5C 348.185,510.416 346.352,508.749 345,506.5C 341.304,483.517 344.971,461.85 356,441.5C 362.091,432.987 368.424,424.654 375,416.5C 384.025,402.427 389.692,387.093 392,370.5C 392.667,337.5 392.667,304.5 392,271.5C 387.324,261.081 379.49,257.581 368.5,261C 367.944,261.383 367.611,261.883 367.5,262.5C 364.448,263.88 362.282,266.214 361,269.5C 359.927,273.084 359.26,276.75 359,280.5C 358.634,282.452 357.801,284.118 356.5,285.5C 352.217,287.259 348.383,286.592 345,283.5C 343.727,271.237 343.06,258.903 343,246.5C 341.167,240.667 337.333,236.833 331.5,235C 327.833,234.333 324.167,234.333 320.5,235C 319.263,235.232 318.263,235.732 317.5,236.5C 312.324,238.849 309.158,242.849 308,248.5C 307.812,260.242 307.312,271.909 306.5,283.5C 301.215,287.942 296.715,287.276 293,281.5C 292.667,269.833 292.333,258.167 292,246.5C 290.601,240.1 286.767,235.934 280.5,234C 276.5,233.333 272.5,233.333 268.5,234C 267.584,234.278 266.918,234.778 266.5,235.5C 261.483,237.018 258.316,240.352 257,245.5C 256.667,257.5 256.333,269.5 256,281.5C 255.338,282.984 254.504,284.317 253.5,285.5C 247.579,287.945 243.413,286.278 241,280.5C 240.667,224.167 240.333,167.833 240,111.5C 234.816,100.483 226.649,97.1492 215.5,101.5C 211.183,103.653 208.016,106.986 206,111.5C 205.5,179.499 205.333,247.499 205.5,315.5C 203.243,320.792 199.243,322.625 193.5,321C 181.568,307.07 170.401,292.57 160,277.5C 151.239,265.973 140.072,261.973 126.5,265.5C 123.162,266.423 120.662,268.423 119,271.5C 118.209,275.926 118.543,280.259 120,284.5C 130.832,300.16 141.165,316.16 151,332.5C 162.702,357.271 173.035,382.604 182,408.5C 187.685,418.538 194.352,427.871 202,436.5C 215.361,457.993 220.028,481.326 216,506.5C 214.648,508.749 212.815,510.416 210.5,511.5C 208.833,511.5 207.167,511.5 205.5,511.5C 203.525,510.354 202.025,508.687 201,506.5C 200.667,496.833 200.333,487.167 200,477.5C 198.862,467.086 195.529,457.419 190,448.5C 179.342,436.531 170.675,423.198 164,408.5C 154.806,378.234 142.139,349.567 126,322.5C 120.245,313.99 114.245,305.657 108,297.5C 98.2624,281.693 99.7624,267.193 112.5,254C 136.117,242.443 156.284,246.943 173,267.5C 177.615,274.45 182.615,281.116 188,287.5C 188.333,229.5 188.667,171.5 189,113.5C 192.237,94.2604 203.57,84.2604 223,83.5C 239.869,84.0998 250.869,92.4332 256,108.5C 257.136,145.799 257.969,183.133 258.5,220.5C 273.925,214.275 287.925,216.608 300.5,227.5C 315.171,216.367 330.504,215.2 346.5,224C 354.381,229.883 358.881,237.717 360,247.5C 375.915,240.16 389.915,242.826 402,255.5C 404.804,259.443 406.804,263.777 408,268.5C 409.621,299.799 409.954,331.132 409,362.5C 406.981,393.253 395.647,419.919 375,442.5C 367.22,452.497 362.553,463.831 361,476.5C 360.667,486.5 360.333,496.5 360,506.5C 358.975,508.687 357.475,510.354 355.5,511.5 Z"/></g>
<g><path style="opacity:1" fill="#ecc898" d="M 253.5,285.5 C 248.884,292.065 242.55,294.231 234.5,292C 230.281,289.448 227.114,285.948 225,281.5C 224.667,224.833 224.333,168.167 224,111.5C 222.022,107.362 219.189,104.029 215.5,101.5C 226.649,97.1492 234.816,100.483 240,111.5C 240.333,167.833 240.667,224.167 241,280.5C 243.413,286.278 247.579,287.945 253.5,285.5 Z"/></g>
<g><path style="opacity:0.999" fill="#f4d8aa" d="M 215.5,101.5 C 219.189,104.029 222.022,107.362 224,111.5C 224.333,168.167 224.667,224.833 225,281.5C 227.114,285.948 230.281,289.448 234.5,292C 242.55,294.231 248.884,292.065 253.5,285.5C 254.504,284.317 255.338,282.984 256,281.5C 256.333,269.5 256.667,257.5 257,245.5C 258.316,240.352 261.483,237.018 266.5,235.5C 271.685,237.857 274.852,241.857 276,247.5C 276.333,258.833 276.667,270.167 277,281.5C 282.037,292.751 290.204,295.584 301.5,290C 303.79,288.223 305.457,286.056 306.5,283.5C 307.312,271.909 307.812,260.242 308,248.5C 309.158,242.849 312.324,238.849 317.5,236.5C 322.49,237.992 325.657,241.326 327,246.5C 327.333,258.167 327.667,269.833 328,281.5C 333.16,292.74 341.327,295.573 352.5,290C 354.041,288.629 355.375,287.129 356.5,285.5C 357.801,284.118 358.634,282.452 359,280.5C 359.26,276.75 359.927,273.084 361,269.5C 362.282,266.214 364.448,263.88 367.5,262.5C 372.295,264.482 375.129,268.149 376,273.5C 376.936,307.858 376.603,342.191 375,376.5C 372.394,387.982 368.394,398.982 363,409.5C 356.439,420.062 349.106,430.062 341,439.5C 328.934,460.263 324.934,482.596 329,506.5C 330.025,508.687 331.525,510.354 333.5,511.5C 292.5,511.5 251.5,511.5 210.5,511.5C 212.815,510.416 214.648,508.749 216,506.5C 220.028,481.326 215.361,457.993 202,436.5C 194.352,427.871 187.685,418.538 182,408.5C 173.035,382.604 162.702,357.271 151,332.5C 141.165,316.16 130.832,300.16 120,284.5C 118.543,280.259 118.209,275.926 119,271.5C 120.662,268.423 123.162,266.423 126.5,265.5C 132.551,267.37 137.718,270.704 142,275.5C 155.13,293.953 168.964,311.787 183.5,329C 196.313,333.345 203.646,328.845 205.5,315.5C 205.333,247.499 205.5,179.499 206,111.5C 208.016,106.986 211.183,103.653 215.5,101.5 Z"/></g>
<g><path style="opacity:1" fill="#eac797" d="M 306.5,283.5 C 305.457,286.056 303.79,288.223 301.5,290C 290.204,295.584 282.037,292.751 277,281.5C 276.667,270.167 276.333,258.833 276,247.5C 274.852,241.857 271.685,237.857 266.5,235.5C 266.918,234.778 267.584,234.278 268.5,234C 272.5,233.333 276.5,233.333 280.5,234C 286.767,235.934 290.601,240.1 292,246.5C 292.333,258.167 292.667,269.833 293,281.5C 296.715,287.276 301.215,287.942 306.5,283.5 Z"/></g>
<g><path style="opacity:1" fill="#ecc897" d="M 356.5,285.5 C 355.375,287.129 354.041,288.629 352.5,290C 341.327,295.573 333.16,292.74 328,281.5C 327.667,269.833 327.333,258.167 327,246.5C 325.657,241.326 322.49,237.992 317.5,236.5C 318.263,235.732 319.263,235.232 320.5,235C 324.167,234.333 327.833,234.333 331.5,235C 337.333,236.833 341.167,240.667 343,246.5C 343.06,258.903 343.727,271.237 345,283.5C 348.383,286.592 352.217,287.259 356.5,285.5 Z"/></g>
<g><path style="opacity:1" fill="#ebc897" d="M 350.5,511.5 C 344.833,511.5 339.167,511.5 333.5,511.5C 331.525,510.354 330.025,508.687 329,506.5C 324.934,482.596 328.934,460.263 341,439.5C 349.106,430.062 356.439,420.062 363,409.5C 368.394,398.982 372.394,387.982 375,376.5C 376.603,342.191 376.936,307.858 376,273.5C 375.129,268.149 372.295,264.482 367.5,262.5C 367.611,261.883 367.944,261.383 368.5,261C 379.49,257.581 387.324,261.081 392,271.5C 392.667,304.5 392.667,337.5 392,370.5C 389.692,387.093 384.025,402.427 375,416.5C 368.424,424.654 362.091,432.987 356,441.5C 344.971,461.85 341.304,483.517 345,506.5C 346.352,508.749 348.185,510.416 350.5,511.5 Z"/></g>
<g><path style="opacity:0.999" fill="#ebc797" d="M 205.5,315.5 C 203.646,328.845 196.313,333.345 183.5,329C 168.964,311.787 155.13,293.953 142,275.5C 137.718,270.704 132.551,267.37 126.5,265.5C 140.072,261.973 151.239,265.973 160,277.5C 170.401,292.57 181.568,307.07 193.5,321C 199.243,322.625 203.243,320.792 205.5,315.5 Z"/></g>
</svg>
